<svg width="24" height="24" viewBox="0 0 24 24" fill="none" xmlns="http://www.w3.org/2000/svg">
<g id="Category">
<mask id="mask0_8_422" style="mask-type:alpha" maskUnits="userSpaceOnUse" x="0" y="0" width="24" height="24">
<rect id="Bounding box" width="24" height="24" fill="#D9D9D9"/>
</mask>
<g mask="url(#mask0_8_422)">
<path id="category" d="M6.34236 11.4154L12.1 1.98083L17.8577 11.4154H6.34236ZM17.7 22.7154C16.3859 22.7154 15.2798 22.2531 14.3818 21.3287C13.4837 20.4042 13.0347 19.278 13.0347 17.95C13.0347 16.6359 13.4837 15.5298 14.3818 14.6318C15.2798 13.7337 16.3859 13.2847 17.7 13.2847C19.028 13.2847 20.1542 13.7337 21.0787 14.6318C22.0031 15.5298 22.4654 16.6401 22.4654 17.9625C22.4654 19.2849 22.0031 20.4077 21.0787 21.3308C20.1542 22.2538 19.028 22.7154 17.7 22.7154ZM2.83466 22.1154V13.7847H11.1654V22.1154H2.83466ZM17.6997 20.5654C18.4153 20.5654 19.0301 20.3177 19.5442 19.8223C20.0583 19.327 20.3154 18.7205 20.3154 18.0031C20.3154 17.2857 20.0584 16.6782 19.5445 16.1808C19.0306 15.6833 18.4158 15.4346 17.7003 15.4346C16.9847 15.4346 16.3865 15.6823 15.9058 16.1777C15.425 16.6731 15.1846 17.2795 15.1846 17.9969C15.1846 18.7144 15.4249 19.3218 15.9055 19.8192C16.3861 20.3167 16.9842 20.5654 17.6997 20.5654ZM4.98461 19.9654H9.01541V15.9346H4.98461V19.9654ZM10.1885 9.26541H14.0616L12.1 6.13846L10.1885 9.26541Z" fill="#09090B"/>
</g>
</g>
</svg>
