<svg width="24" height="24" viewBox="0 0 24 24" fill="none" xmlns="http://www.w3.org/2000/svg">
<g id="Chapter">
<mask id="mask0_1_461" style="mask-type:alpha" maskUnits="userSpaceOnUse" x="0" y="0" width="24" height="24">
<rect id="Bounding box" width="24" height="24" fill="#D9D9D9"/>
</mask>
<g mask="url(#mask0_1_461)">
<path id="auto_stories" d="M11.975 19.6653C11.1724 19.0705 10.3118 18.6025 9.39326 18.2615C8.47466 17.9205 7.51419 17.75 6.51184 17.75C5.68727 17.75 4.80031 17.9208 3.85096 18.2624C2.90161 18.6041 2.06797 18.9987 1.35004 19.4461V5.73848C2.09234 5.37823 2.88143 5.07343 3.71731 4.82408C4.55319 4.57471 5.48075 4.45002 6.49999 4.45002C7.47879 4.45002 8.43182 4.58785 9.35909 4.8635C10.2864 5.13915 11.1667 5.53087 12 6.03865V17.7115C12.8436 17.1782 13.7336 16.7763 14.6702 16.5058C15.6067 16.2353 16.55 16.1 17.5 16.1C18.0743 16.1 18.665 16.1532 19.2721 16.2596C19.8792 16.366 20.4551 16.516 21 16.7096V5.01928C21.209 5.08338 21.4689 5.17632 21.7798 5.2981C22.0907 5.4199 22.3807 5.55003 22.65 5.68848V19.4461C21.9487 18.9987 21.1192 18.6041 20.1615 18.2624C19.2038 17.9208 18.3127 17.75 17.4881 17.75C16.4794 17.75 15.5074 17.9157 14.5721 18.2471C13.6368 18.5785 12.7711 19.0512 11.975 19.6653ZM14 15.15V5.95002L19 0.900024V10.6L14 15.15ZM10.35 16.9116V7.03463C9.70643 6.69104 9.0779 6.44938 8.46444 6.30963C7.85097 6.16988 7.19615 6.1 6.49999 6.1C5.84999 6.1 5.22627 6.16571 4.62884 6.29713C4.03139 6.42853 3.48844 6.59422 2.99999 6.79422V16.775C3.51152 16.5673 4.05383 16.4029 4.62691 16.2817C5.19998 16.1606 5.82017 16.1 6.48749 16.1C7.2766 16.1 7.97821 16.1689 8.59231 16.3067C9.20643 16.4446 9.79233 16.6462 10.35 16.9116Z" fill="#09090B"/>
</g>
</g>
</svg>
