<svg width="24" height="24" viewBox="0 0 24 24" fill="none" xmlns="http://www.w3.org/2000/svg">
<g id="Combine">
<mask id="mask0_18_295" style="mask-type:alpha" maskUnits="userSpaceOnUse" x="0" y="0" width="24" height="24">
<rect id="Bounding box" width="24" height="24" fill="#D9D9D9"/>
</mask>
<g mask="url(#mask0_18_295)">
<path id="join" d="M16 16.675C17.2934 16.675 18.3959 16.2192 19.3075 15.3075C20.2192 14.3959 20.675 13.2934 20.675 12C20.675 10.7066 20.2192 9.60406 19.3075 8.69244C18.3959 7.78081 17.2934 7.32499 16 7.32499C15.5393 7.32499 15.1032 7.39113 14.6917 7.52339C14.2801 7.65566 13.9098 7.83889 13.5807 8.07309C13.9756 8.62821 14.2817 9.23769 14.499 9.90154C14.7163 10.5654 14.825 11.2649 14.825 12C14.825 12.7351 14.7163 13.4346 14.499 14.0984C14.2817 14.7623 13.9756 15.3718 13.5807 15.9269C13.9098 16.1611 14.2801 16.3443 14.6917 16.4766C15.1032 16.6089 15.5393 16.675 16 16.675ZM12 14.425C12.2137 14.081 12.3797 13.6992 12.4978 13.2795C12.6159 12.8598 12.675 12.4333 12.675 12C12.675 11.5667 12.6159 11.1402 12.4978 10.7205C12.3797 10.3008 12.2137 9.91899 12 9.57499C11.7862 9.91899 11.6203 10.3008 11.5022 10.7205C11.3841 11.1402 11.325 11.5667 11.325 12C11.325 12.4333 11.3841 12.8598 11.5022 13.2795C11.6203 13.6992 11.7862 14.081 12 14.425ZM7.99999 16.675C8.46066 16.675 8.89677 16.6089 9.30832 16.4766C9.71988 16.3443 10.0902 16.1611 10.4192 15.9269C10.0244 15.3718 9.71829 14.7623 9.50099 14.0984C9.28368 13.4346 9.17502 12.7351 9.17502 12C9.17502 11.2649 9.28368 10.5654 9.50099 9.90154C9.71829 9.23769 10.0244 8.62821 10.4192 8.07309C10.0902 7.83889 9.71988 7.65566 9.30832 7.52339C8.89677 7.39113 8.46066 7.32499 7.99999 7.32499C6.70658 7.32499 5.60406 7.78081 4.69244 8.69244C3.78081 9.60406 3.32499 10.7066 3.32499 12C3.32499 13.2934 3.78081 14.3959 4.69244 15.3075C5.60406 16.2192 6.70658 16.675 7.99999 16.675ZM7.99999 18.825C6.10049 18.825 4.48813 18.1623 3.16289 16.8371C1.83764 15.5119 1.17502 13.8995 1.17502 12C1.17502 10.1005 1.83764 8.48813 3.16289 7.16289C4.48813 5.83764 6.10049 5.17502 7.99999 5.17502C8.75686 5.17502 9.47172 5.29361 10.1446 5.53079C10.8174 5.76798 11.4359 6.10068 12 6.52889C12.5641 6.10068 13.1826 5.76798 13.8554 5.53079C14.5283 5.29361 15.2431 5.17502 16 5.17502C17.8995 5.17502 19.5119 5.83764 20.8371 7.16289C22.1623 8.48813 22.825 10.1005 22.825 12C22.825 13.8995 22.1623 15.5119 20.8371 16.8371C19.5119 18.1623 17.8995 18.825 16 18.825C15.2431 18.825 14.5283 18.7064 13.8554 18.4692C13.1826 18.232 12.5641 17.8993 12 17.4711C11.4359 17.8993 10.8174 18.232 10.1446 18.4692C9.47172 18.7064 8.75686 18.825 7.99999 18.825Z" fill="#09090B"/>
</g>
</g>
</svg>
