<svg width="24" height="24" viewBox="0 0 24 24" fill="none" xmlns="http://www.w3.org/2000/svg">
<g id="Compare">
<mask id="mask0_18_288" style="mask-type:alpha" maskUnits="userSpaceOnUse" x="0" y="0" width="24" height="24">
<rect id="Bounding box" width="24" height="24" fill="#D9D9D9"/>
</mask>
<g mask="url(#mask0_18_288)">
<path id="draw_abstract" d="M10.6673 16.3019C10.3699 16.6057 9.99647 16.809 9.5471 16.9115C9.09775 17.0141 8.64807 17.0301 8.19807 16.9596C8.01987 16.9198 7.88814 16.9089 7.80287 16.9269C7.71762 16.9448 7.6423 16.9865 7.5769 17.0519C7.4846 17.1442 7.44293 17.2522 7.4519 17.3759C7.46088 17.4997 7.49166 17.6622 7.54422 17.8635C7.63524 18.3135 7.6237 18.7455 7.5096 19.1596C7.3955 19.5737 7.2064 19.9192 6.9423 20.1961C6.66793 20.4705 6.31762 20.6574 5.89135 20.7567C5.46507 20.8561 5.02052 20.8705 4.5577 20.8C4.22308 20.7397 3.93462 20.7426 3.69232 20.8086C3.45001 20.8747 3.18718 21.0679 2.90385 21.3884L1.52502 20.0904C2.07759 19.4045 2.64233 18.9638 3.21925 18.7683C3.79618 18.5728 4.42054 18.543 5.09232 18.6789C5.14874 18.7314 5.19297 18.7375 5.22502 18.6971C5.25707 18.6567 5.29617 18.6103 5.34232 18.5577C5.44104 18.4526 5.48431 18.3272 5.47212 18.1817C5.45996 18.0362 5.434 17.8462 5.39425 17.6115C5.31092 17.2244 5.3122 16.8237 5.3981 16.4096C5.484 15.9955 5.6622 15.65 5.9327 15.3731C6.21988 15.0859 6.57245 14.891 6.9904 14.7885C7.40835 14.6859 7.82052 14.6699 8.22692 14.7404C8.46154 14.7801 8.63654 14.791 8.75192 14.7731C8.86731 14.7551 8.9577 14.6885 9.0231 14.5731C9.08848 14.4577 9.11925 14.3439 9.1154 14.2317C9.11155 14.1196 9.08976 13.9545 9.05002 13.7365C8.97951 13.3494 8.99137 12.9529 9.0856 12.5471C9.17983 12.1414 9.37053 11.8 9.6577 11.5231C9.92822 11.2526 10.2724 11.0676 10.6904 10.9683C11.1083 10.8689 11.5122 10.8545 11.9019 10.925C12.1365 10.9648 12.3157 10.9699 12.4394 10.9404C12.5631 10.9109 12.6577 10.8468 12.7231 10.7481C12.8051 10.6327 12.8401 10.5147 12.8279 10.3942C12.8157 10.2737 12.7898 10.0878 12.75 9.83652C12.6962 9.4596 12.7164 9.07243 12.8106 8.67499C12.9048 8.27756 13.0872 7.94359 13.3577 7.67309C13.6282 7.40258 13.9798 7.21924 14.4125 7.12309C14.8452 7.02694 15.3058 7.01412 15.7942 7.08462C15.9968 7.12437 16.1484 7.12789 16.249 7.09519C16.3497 7.06251 16.4327 7.00514 16.4981 6.92309C16.5801 6.80769 16.6026 6.68557 16.5654 6.55672C16.5282 6.42789 16.4898 6.22115 16.45 5.93652C16.3923 5.58654 16.4205 5.21699 16.5346 4.82789C16.6487 4.43879 16.8378 4.10578 17.1019 3.82884C17.3763 3.55449 17.7282 3.3718 18.1577 3.28077C18.5872 3.18975 19.0333 3.1795 19.4961 3.25002C19.8308 3.31027 20.1176 3.30322 20.3567 3.22887C20.5958 3.1545 20.857 2.95707 21.1404 2.63657L22.5038 3.93462C21.9513 4.6205 21.3907 5.06537 20.8221 5.26922C20.2535 5.47305 19.6333 5.50702 18.9615 5.37112C18.9051 5.31855 18.8567 5.31247 18.8163 5.35287C18.7759 5.39325 18.7327 5.43973 18.6865 5.49229C18.5878 5.59743 18.5471 5.71442 18.5644 5.84327C18.5817 5.9721 18.6102 6.15384 18.65 6.38847C18.7205 6.76539 18.7086 7.16089 18.6144 7.57499C18.5202 7.98909 18.3378 8.33139 18.0673 8.60189C17.7801 8.88908 17.416 9.08331 16.975 9.18459C16.534 9.28588 16.091 9.30126 15.6461 9.23074C15.4667 9.19741 15.3266 9.19709 15.2259 9.22979C15.1253 9.26248 15.0423 9.32818 14.9769 9.42689C14.9115 9.52563 14.8766 9.63109 14.8721 9.74327C14.8676 9.85544 14.8852 9.9955 14.925 10.1635C14.9955 10.584 14.9852 11.0054 14.8942 11.4279C14.8032 11.8503 14.6224 12.2 14.3519 12.4769C14.0647 12.7641 13.7106 12.9557 13.2894 13.0519C12.8683 13.148 12.4218 13.1609 11.95 13.0904C11.791 13.0506 11.658 13.0487 11.5509 13.0846C11.4439 13.1205 11.3609 13.1679 11.3019 13.2269C11.2096 13.3192 11.1638 13.4314 11.1644 13.5634C11.165 13.6955 11.1852 13.8622 11.225 14.0635C11.2955 14.4506 11.2894 14.8513 11.2067 15.2654C11.124 15.6795 10.9442 16.025 10.6673 16.3019ZM6 10.825C4.67437 10.825 3.5388 10.3522 2.5933 9.40669C1.6478 8.46119 1.17505 7.32563 1.17505 5.99999C1.17505 4.66796 1.64523 3.53079 2.5856 2.58847C3.52598 1.64617 4.66412 1.17502 6 1.17502C7.3423 1.17502 8.48203 1.64361 9.4192 2.58079C10.3564 3.51796 10.825 4.65769 10.825 5.99999C10.825 7.33588 10.3538 8.47401 9.41152 9.41439C8.46921 10.3548 7.33203 10.825 6 10.825ZM6 8.67499C6.75642 8.67499 7.39135 8.41506 7.9048 7.89519C8.41827 7.37531 8.675 6.74358 8.675 5.99999C8.675 5.24999 8.41667 4.61666 7.9 4.09999C7.38333 3.58333 6.75 3.32499 6 3.32499C5.25642 3.32499 4.62468 3.58173 4.1048 4.09519C3.58493 4.60864 3.325 5.24358 3.325 5.99999C3.325 6.74999 3.58333 7.38333 4.1 7.89999C4.61667 8.41666 5.25 8.67499 6 8.67499ZM14.175 22.825V14.175H22.825V22.8249L14.175 22.825ZM16.325 20.675H20.675V16.325H16.325V20.675Z" fill="#09090B"/>
</g>
</g>
</svg>
