<svg width="24" height="24" viewBox="0 0 24 24" fill="none" xmlns="http://www.w3.org/2000/svg">
<g id="Evalute">
<mask id="mask0_18_302" style="mask-type:alpha" maskUnits="userSpaceOnUse" x="0" y="0" width="24" height="24">
<rect id="Bounding box" width="24" height="24" fill="#D9D9D9"/>
</mask>
<g mask="url(#mask0_18_302)">
<path id="biotech" d="M4.74236 21.2V19.05H9.84236V17.1H9.59233C8.2115 17.1 7.05796 16.591 6.13171 15.5731C5.20547 14.5552 4.74236 13.3438 4.74236 11.9389C4.74236 10.9018 5.03594 9.95809 5.62311 9.10794C6.21029 8.25779 6.98465 7.62566 7.94618 7.21156C8.06156 6.62053 8.36413 6.15194 8.85388 5.80579C9.34363 5.45964 9.87312 5.27439 10.4424 5.25004L9.88465 3.71541L10.8347 3.36541L10.4847 2.44616L12.5192 1.68079L12.7885 2.68079L13.8 2.30004L16.6154 10.0346L15.6539 10.3846L16.0039 11.3846L13.9693 12.1L13.7 11.15L12.7 11.4692L12.0808 9.82306C11.8231 10.032 11.535 10.1952 11.2164 10.3125C10.8978 10.4298 10.5654 10.4782 10.2193 10.4577C9.82694 10.4372 9.47181 10.324 9.15386 10.1183C8.83592 9.91249 8.55131 9.6705 8.30003 9.39229C7.86028 9.66537 7.51572 10.0308 7.26636 10.4885C7.01699 10.9462 6.89231 11.4333 6.89231 11.95C6.89231 12.7833 7.19161 13.4917 7.79023 14.075C8.38885 14.6584 9.10621 14.95 9.94233 14.95H18.1423V17.1H13.1077V19.05H19.2577V21.2H4.74236ZM13.6769 9.40386L14.5193 9.07694L12.8423 4.31539L11.9 4.67309L13.6769 9.40386ZM10.4167 8.86541C10.6825 8.86541 10.9141 8.76691 11.1116 8.56991C11.309 8.37293 11.4077 8.14152 11.4077 7.87569C11.4077 7.60985 11.3092 7.37822 11.1122 7.18079C10.9152 6.98334 10.6838 6.88461 10.418 6.88461C10.1522 6.88461 9.92053 6.98311 9.72308 7.18011C9.52565 7.37709 9.42693 7.6085 9.42693 7.87434C9.42693 8.14017 9.52542 8.3718 9.72241 8.56924C9.91941 8.76669 10.1508 8.86541 10.4167 8.86541Z" fill="#09090B"/>
</g>
</g>
</svg>
