<svg width="24" height="24" viewBox="0 0 24 24" fill="none" xmlns="http://www.w3.org/2000/svg">
<g id="Graph">
<mask id="mask0_8_591" style="mask-type:alpha" maskUnits="userSpaceOnUse" x="0" y="0" width="24" height="24">
<rect id="Bounding box" width="24" height="24" fill="#D9D9D9"/>
</mask>
<g mask="url(#mask0_8_591)">
<path id="conversion_path" d="M19 21.125C18.2757 21.125 17.6362 20.9083 17.0817 20.475C16.5272 20.0416 16.1641 19.5083 15.9923 18.875H11C9.91411 18.875 8.99681 18.5006 8.24811 17.7519C7.49939 17.0032 7.12503 16.0859 7.12503 15C7.12503 13.9141 7.49939 12.9968 8.24811 12.2481C8.99681 11.4994 9.91411 11.125 11 11.125H13C13.5844 11.125 14.0847 10.9167 14.5008 10.4999C14.917 10.0832 15.125 9.58223 15.125 8.99703C15.125 8.41183 14.917 7.91186 14.5008 7.49711C14.0847 7.08236 13.5844 6.87498 13 6.87498H8.00768C7.82563 7.50832 7.45993 8.04165 6.91058 8.47498C6.36121 8.90832 5.72436 9.12498 5.00001 9.12498C4.13196 9.12498 3.39411 8.82171 2.78648 8.21516C2.17885 7.60859 1.87503 6.87206 1.87503 6.00556C1.87503 5.13904 2.17885 4.40066 2.78648 3.79041C3.39411 3.18016 4.13196 2.87503 5.00001 2.87503C5.72436 2.87503 6.36121 3.0917 6.91058 3.52503C7.45993 3.95836 7.82563 4.4917 8.00768 5.12503H13C14.0859 5.12503 15.0032 5.49939 15.7519 6.24811C16.5006 6.99681 16.875 7.91411 16.875 9.00001C16.875 10.0859 16.5006 11.0032 15.7519 11.7519C15.0032 12.5006 14.0859 12.875 13 12.875H11C10.4156 12.875 9.91536 13.0833 9.49921 13.5001C9.08306 13.9168 8.87498 14.4178 8.87498 15.003C8.87498 15.5882 9.08306 16.0882 9.49921 16.5029C9.91536 16.9177 10.4156 17.125 11 17.125H15.9923C16.1744 16.4917 16.5401 15.9584 17.0894 15.525C17.6388 15.0917 18.2757 14.875 19 14.875C19.8681 14.875 20.6059 15.1783 21.2135 15.7849C21.8212 16.3914 22.125 17.128 22.125 17.9945C22.125 18.861 21.8212 19.5994 21.2135 20.2096C20.6059 20.8199 19.8681 21.125 19 21.125ZM4.99431 6.97503C5.26221 6.97503 5.49264 6.88046 5.68561 6.69131C5.87856 6.50216 5.97503 6.27362 5.97503 6.00571C5.97503 5.73781 5.88046 5.50737 5.69131 5.31441C5.50216 5.12146 5.27362 5.02498 5.00571 5.02498C4.73781 5.02498 4.50737 5.11956 4.31441 5.30871C4.12146 5.49786 4.02498 5.72639 4.02498 5.99431C4.02498 6.26221 4.11956 6.49264 4.30871 6.68561C4.49786 6.87856 4.72639 6.97503 4.99431 6.97503Z" fill="#09090B"/>
</g>
</g>
</svg>
