<svg width="24" height="24" viewBox="0 0 24 24" fill="none" xmlns="http://www.w3.org/2000/svg">
<g id="Human">
<mask id="mask0_18_275" style="mask-type:alpha" maskUnits="userSpaceOnUse" x="0" y="0" width="24" height="24">
<rect id="Bounding box" width="24" height="24" fill="#D9D9D9"/>
</mask>
<g mask="url(#mask0_18_275)">
<path id="accessibility_new" d="M11.95 5.80384C11.3551 5.80384 10.8571 5.6032 10.4558 5.20192C10.0545 4.80064 9.85386 4.30256 9.85386 3.70769C9.85386 3.11283 10.0545 2.61475 10.4558 2.21347C10.8571 1.81218 11.3551 1.61154 11.95 1.61154C12.5449 1.61154 13.0429 1.81218 13.4442 2.21347C13.8455 2.61475 14.0462 3.11283 14.0462 3.70769C14.0462 4.30256 13.8455 4.80064 13.4442 5.20192C13.0429 5.6032 12.5449 5.80384 11.95 5.80384ZM8.85388 22.15V9.16152C7.83465 9.07818 6.80452 8.94966 5.76351 8.77594C4.72247 8.60223 3.71798 8.38332 2.75003 8.11922L3.26541 5.96924C4.59619 6.33334 6.00676 6.59808 7.49713 6.76347C8.98751 6.92885 10.4718 7.01154 11.95 7.01154C13.4282 7.01154 14.9292 6.92885 16.4529 6.76347C17.9766 6.59808 19.4038 6.33334 20.7346 5.96924L21.25 8.11922C20.282 8.38332 19.2775 8.60223 18.2365 8.77594C17.1955 8.94966 16.1654 9.07818 15.1461 9.16152V22.15H12.9962V16.0346H11.0039V22.15H8.85388Z" fill="#09090B"/>
</g>
</g>
</svg>
