<svg width="24" height="24" viewBox="0 0 24 24" fill="none" xmlns="http://www.w3.org/2000/svg">
<mask id="mask0_264_355" style="mask-type:alpha" maskUnits="userSpaceOnUse" x="0" y="0" width="24" height="24">
<rect width="24" height="24" fill="#D9D9D9"/>
</mask>
<g mask="url(#mask0_264_355)">
<path d="M12 16.0077C12.2987 16.0077 12.558 15.8977 12.7779 15.6779C12.9977 15.458 13.1077 15.1987 13.1077 14.9C13.1077 14.6013 12.9977 14.342 12.7779 14.1221C12.558 13.9023 12.2987 13.7923 12 13.7923C11.7013 13.7923 11.442 13.9023 11.2221 14.1221C11.0023 14.342 10.8923 14.6013 10.8923 14.9C10.8923 15.1987 11.0023 15.458 11.2221 15.6779C11.442 15.8977 11.7013 16.0077 12 16.0077ZM11.0538 12.8307H12.7461C12.7525 12.5961 12.7657 12.3968 12.7856 12.2327C12.8054 12.0686 12.8468 11.9333 12.9096 11.8269C12.9724 11.7038 13.0695 11.5708 13.2009 11.4279C13.3324 11.2849 13.525 11.0865 13.7788 10.8327C14.1493 10.4622 14.4199 10.1006 14.5904 9.74807C14.7609 9.3955 14.8461 9.02435 14.8461 8.63462C14.8461 7.8423 14.5782 7.2032 14.0423 6.71732C13.5064 6.23142 12.8051 5.98847 11.9385 5.98847C11.2628 5.98847 10.6519 6.1968 10.1058 6.61347C9.55962 7.03014 9.17181 7.58462 8.94232 8.27692L10.4731 8.89614C10.632 8.51921 10.8388 8.21729 11.0933 7.99037C11.3478 7.76345 11.6462 7.64999 11.9885 7.64999C12.3346 7.64999 12.6154 7.73878 12.8308 7.91634C13.0462 8.09389 13.1538 8.34357 13.1538 8.66537C13.1538 8.89487 13.0981 9.11186 12.9865 9.31634C12.875 9.52083 12.668 9.75256 12.3654 10.0115C12.091 10.2487 11.8654 10.4699 11.6885 10.675C11.5116 10.8801 11.3814 11.0827 11.2981 11.2827C11.2148 11.4724 11.1532 11.6978 11.1135 11.9586C11.0737 12.2195 11.0538 12.5102 11.0538 12.8307ZM12 19.4635C13.9397 17.8122 15.4577 16.1699 16.5538 14.5365C17.65 12.9032 18.1981 11.4487 18.1981 10.1731C18.1981 8.41667 17.6022 6.91795 16.4106 5.67692C15.2189 4.43589 13.7487 3.81537 12 3.81537C10.2513 3.81537 8.78109 4.43589 7.58942 5.67692C6.39776 6.91795 5.80192 8.41667 5.80192 10.1731C5.80192 11.4487 6.35 12.899 7.44615 14.524C8.54231 16.1491 10.0603 17.7955 12 19.4635ZM12 22.3346C9.16668 19.9538 7.06701 17.7743 5.70097 15.7961C4.33496 13.8179 3.65195 11.9436 3.65195 10.1731C3.65195 7.88207 4.45259 5.89298 6.05387 4.20579C7.65514 2.51861 9.63718 1.67502 12 1.67502C14.3628 1.67502 16.3449 2.51861 17.9461 4.20579C19.5474 5.89298 20.348 7.88207 20.348 10.1731C20.348 11.9436 19.665 13.8179 18.299 15.7961C16.933 17.7743 14.8333 19.9538 12 22.3346Z" fill="#09090B"/>
</g>
</svg>
