<svg width="24" height="24" viewBox="0 0 24 24" fill="none" xmlns="http://www.w3.org/2000/svg">
<g id="Rebuild">
<mask id="mask0_22_485" style="mask-type:alpha" maskUnits="userSpaceOnUse" x="0" y="0" width="24" height="24">
<rect id="Bounding box" width="24" height="24" fill="#D9D9D9"/>
</mask>
<g mask="url(#mask0_22_485)">
<path id="rule_settings" d="M2.70773 20.223V18.0731H5.48083L5.10388 17.6769C4.29876 16.8333 3.6978 15.9365 3.301 14.9865C2.9042 14.0365 2.7058 13.0558 2.7058 12.0442C2.7058 10.1494 3.28689 8.44971 4.44908 6.94522C5.61124 5.44074 7.10514 4.45772 8.93078 3.99617V6.2769C7.70769 6.6987 6.72275 7.43812 5.97595 8.49517C5.22917 9.55224 4.85578 10.7353 4.85578 12.0442C4.85578 12.7263 4.97885 13.4026 5.225 14.0731C5.47115 14.7436 5.84872 15.3667 6.3577 15.9423L6.79235 16.377V13.9885H8.9423V20.223H2.70773ZM21.0654 10.3865H18.875C18.7391 9.98652 18.5679 9.58588 18.3615 9.1846C18.1551 8.78331 17.8987 8.40767 17.5923 8.05767L17.1577 7.62302V10.0115H15.0077V3.77695H21.2423V5.9269H18.4692L18.8461 6.3231C19.4448 6.9218 19.9279 7.56314 20.2952 8.24712C20.6625 8.93109 20.9192 9.64422 21.0654 10.3865ZM16.75 23.0538L16.4462 21.4711C16.2231 21.4378 16.0189 21.3692 15.8337 21.2653C15.6484 21.1615 15.4961 21.0454 15.3769 20.9172L13.8539 21.3691L12.7654 19.5423L13.9943 18.4538C13.9494 18.2564 13.9269 18.0506 13.9269 17.8365C13.9269 17.6224 13.9494 17.4166 13.9943 17.2192L12.7654 16.1307L13.8539 14.3038L15.3769 14.7557C15.4961 14.6275 15.6484 14.5115 15.8337 14.4077C16.0189 14.3038 16.2231 14.2352 16.4462 14.2019L16.75 12.5692H18.95L19.3038 14.2019C19.5269 14.2352 19.7311 14.3022 19.9163 14.4029C20.1016 14.5035 20.2538 14.6147 20.3731 14.7365L21.8961 14.3038L22.9846 16.1115L21.7557 17.1999C21.8006 17.4102 21.823 17.6192 21.823 17.8269C21.823 18.0346 21.8006 18.2436 21.7557 18.4538L22.9846 19.5423L21.8961 21.3691L20.3731 20.9172C20.2538 21.0454 20.1016 21.1615 19.9163 21.2653C19.7311 21.3692 19.5269 21.4378 19.3038 21.4711L18.95 23.0538H16.75ZM17.85 19.8384C18.4025 19.8384 18.8785 19.6387 19.2779 19.2394C19.6772 18.84 19.8769 18.3641 19.8769 17.8115C19.8769 17.2589 19.6772 16.783 19.2779 16.3836C18.8785 15.9842 18.4025 15.7846 17.85 15.7846C17.2807 15.7846 16.8006 15.9801 16.4096 16.3711C16.0186 16.7621 15.8231 17.2423 15.8231 17.8115C15.8231 18.3807 16.0186 18.8609 16.4096 19.2519C16.8006 19.6429 17.2807 19.8384 17.85 19.8384Z" fill="#09090B"/>
</g>
</g>
</svg>
