<svg width="24" height="24" viewBox="0 0 24 24" fill="none" xmlns="http://www.w3.org/2000/svg">
<mask id="mask0_8_590" style="mask-type:alpha" maskUnits="userSpaceOnUse" x="0" y="0" width="24" height="24">
<rect width="24" height="24" transform="matrix(-1 0 0 1 24 0)" fill="#D9D9D9"/>
</mask>
<g mask="url(#mask0_8_590)">
<path d="M13 17.3942C13.2205 17.3942 13.4061 17.3308 13.5567 17.2039C13.7074 17.0769 13.8152 16.9195 13.8803 16.7315C14.0524 16.2656 14.261 15.8482 14.5061 15.4793C14.7512 15.1104 15.0004 14.7609 15.2538 14.4308C15.7102 13.8346 16.0897 13.2657 16.3923 12.7241C16.6949 12.1824 16.8462 11.5052 16.8462 10.6923C16.8462 9.63482 16.4695 8.72942 15.7162 7.97614C14.9629 7.22284 14.0575 6.84619 13 6.84619C11.9425 6.84619 11.0371 7.22284 10.2838 7.97614C9.5305 8.72942 9.15385 9.63482 9.15385 10.6923C9.15385 11.5052 9.30513 12.1824 9.6077 12.7241C9.91027 13.2657 10.2898 13.8346 10.7462 14.4308C10.9996 14.7609 11.2488 15.1104 11.4939 15.4793C11.739 15.8482 11.9468 16.266 12.1173 16.7327C12.184 16.9263 12.2926 17.0849 12.4433 17.2087C12.5939 17.3324 12.7795 17.3942 13 17.3942ZM13 14.6808C12.7987 14.3641 12.6151 14.0946 12.449 13.8722C12.283 13.6497 12.1333 13.4468 12 13.2635C11.6038 12.7507 11.3125 12.3212 11.126 11.975C10.9394 11.6289 10.8462 11.2013 10.8462 10.6923C10.8462 10.1 11.0571 9.59296 11.4789 9.17116C11.9006 8.74938 12.4077 8.53849 13 8.53849C13.5923 8.53849 14.0994 8.74938 14.5212 9.17116C14.943 9.59296 15.1539 10.1 15.1539 10.6923C15.1539 11.2013 15.0606 11.6289 14.8741 11.975C14.6875 12.3212 14.3962 12.7507 14 13.2635C13.8346 13.4853 13.6673 13.7122 13.4981 13.9443C13.3288 14.1763 13.1628 14.4218 13 14.6808ZM12.9987 11.8462C12.6752 11.8462 12.4023 11.7345 12.1798 11.5112C11.9574 11.2878 11.8462 11.0144 11.8462 10.691C11.8462 10.3675 11.9578 10.0946 12.1812 9.87214C12.4045 9.6497 12.6779 9.53849 13.0014 9.53849C13.3248 9.53849 13.5977 9.65016 13.8202 9.87351C14.0426 10.0968 14.1539 10.3702 14.1539 10.6937C14.1539 11.0171 14.0422 11.2901 13.8188 11.5125C13.5955 11.7349 13.3221 11.8462 12.9987 11.8462ZM13.125 21.175C15.7194 21.175 17.9055 20.2946 19.6833 18.5337C21.4611 16.7729 22.35 14.5954 22.35 12.0013C22.35 10.721 22.1102 9.5154 21.6307 8.38464C21.1512 7.25387 20.4948 6.26765 19.6615 5.42599C18.8282 4.58434 17.8505 3.92377 16.7284 3.44429C15.6064 2.96479 14.4054 2.72504 13.1256 2.72504C11.9124 2.72504 10.7571 2.93979 9.65963 3.36929C8.56219 3.79877 7.59681 4.401 6.76347 5.17599C5.93016 5.95099 5.25709 6.86625 4.74427 7.92176C4.23144 8.97728 3.95002 10.1284 3.90002 11.375V11.9808L2.66925 10.75L1.17502 12.2442L4.97502 16.0442L8.775 12.2442L7.2808 10.75L6.1 11.9308V11.325C6.23333 9.49168 6.975 7.95835 8.325 6.72501C9.675 5.49168 11.275 4.87501 13.125 4.87501C15.125 4.87501 16.8042 5.55835 18.1625 6.92501C19.5208 8.29168 20.2 9.98335 20.2 12C20.2064 13.9731 19.5221 15.6372 18.1471 16.9923C16.7721 18.3474 15.0981 19.025 13.125 19.025C12.2314 19.025 11.3375 18.8481 10.4433 18.4942C9.54904 18.1404 8.74552 17.6116 8.0327 16.9077L6.47888 18.4519C7.38016 19.3942 8.39297 20.0836 9.51732 20.5202C10.6417 20.9567 11.8442 21.175 13.125 21.175Z" fill="#09090B"/>
</g>
</svg>
