<svg width="24" height="24" viewBox="0 0 24 24" fill="none" xmlns="http://www.w3.org/2000/svg">
<mask id="mask0_8_590" style="mask-type:alpha" maskUnits="userSpaceOnUse" x="0" y="0" width="24" height="24">
<rect width="24" height="24" fill="#D9D9D9"/>
</mask>
<g mask="url(#mask0_8_590)">
<path d="M1.70001 21.3V4.70001H7.08654L9.13654 2.70001H14.8634L16.905 4.70001H22.3V21.3H1.70001ZM3.84999 19.15H20.15V6.84999H16.0192L13.9846 4.84999H9.99036L8.00576 6.84999H3.84999V19.15ZM11.993 18.1711C13.3477 18.1711 14.4875 17.6788 15.4125 16.6942C16.3375 15.7096 16.832 14.5294 16.8961 13.1538L17.8 13.9884L18.6884 13.15L16.35 10.8115L14.0115 13.1431L14.85 13.9884L15.6538 13.1846C15.5643 14.1976 15.1772 15.0623 14.4924 15.7789C13.8077 16.4955 12.9769 16.8538 12 16.8538C11.7897 16.8538 11.5836 16.833 11.3817 16.7913C11.1798 16.7497 10.982 16.6936 10.7885 16.6231L9.85001 17.5615C10.2013 17.7397 10.5519 17.8859 10.9019 18C11.2519 18.1141 11.6156 18.1711 11.993 18.1711ZM7.64999 15.5634L9.98844 13.2319L9.14999 12.3865L8.34614 13.1904C8.43569 12.1774 8.82282 11.3126 9.50754 10.596C10.1922 9.87944 11.0231 9.52114 12 9.52114C12.2102 9.52114 12.4163 9.54197 12.6183 9.58364C12.8202 9.6253 13.0179 9.68139 13.2115 9.75189L14.15 8.81346C13.7987 8.63525 13.448 8.48909 13.0981 8.37499C12.7481 8.26089 12.3844 8.20384 12.007 8.20384C10.6523 8.20384 9.51249 8.69615 8.58749 9.68076C7.66249 10.6654 7.16794 11.8455 7.10384 13.2212L6.19999 12.3865L5.31154 13.225L7.64999 15.5634Z" fill="#09090B"/>
</g>
</svg>
