<svg width="24" height="24" viewBox="0 0 24 24" fill="none" xmlns="http://www.w3.org/2000/svg">
<g id="Robot">
<mask id="mask0_8_542" style="mask-type:alpha" maskUnits="userSpaceOnUse" x="0" y="0" width="24" height="24">
<rect id="Bounding box" width="24" height="24" fill="#D9D9D9"/>
</mask>
<g mask="url(#mask0_8_542)">
<path id="robot_2" d="M3.70001 21.3V14.6731H20.3V21.3H3.70001ZM8.74424 12.7884C7.34867 12.7884 6.15908 12.2966 5.17546 11.313C4.19183 10.3294 3.70001 9.13979 3.70001 7.74424C3.70001 6.34867 4.19183 5.15908 5.17546 4.17546C6.15908 3.19183 7.34867 2.70001 8.74424 2.70001H15.2557C16.6513 2.70001 17.8409 3.19183 18.8245 4.17546C19.8081 5.15908 20.3 6.34867 20.3 7.74424C20.3 9.13979 19.8081 10.3294 18.8245 11.313C17.8409 12.2966 16.6513 12.7884 15.2557 12.7884H8.74424ZM5.84999 19.15H18.15V16.823H5.84999V19.15ZM8.74424 10.6385H15.2557C16.0645 10.6385 16.7491 10.358 17.3094 9.79706C17.8698 9.23613 18.15 8.55087 18.15 7.74129C18.15 6.9317 17.8698 6.24743 17.3094 5.68846C16.7491 5.12948 16.0645 4.84999 15.2557 4.84999H8.74424C7.93547 4.84999 7.2509 5.13045 6.69054 5.69139C6.13017 6.25232 5.84999 6.93758 5.84999 7.74716C5.84999 8.55675 6.13017 9.24103 6.69054 9.80001C7.2509 10.359 7.93547 10.6385 8.74424 10.6385ZM8.74389 8.85961C9.07232 8.85961 9.35288 8.74338 9.58556 8.51091C9.81826 8.27845 9.93461 7.998 9.93461 7.66956C9.93461 7.34115 9.81838 7.06059 9.58591 6.82789C9.35345 6.59521 9.073 6.47886 8.74456 6.47886C8.41614 6.47886 8.13559 6.5951 7.90289 6.82756C7.6702 7.06003 7.55386 7.34047 7.55386 7.66889C7.55386 7.99732 7.67009 8.27788 7.90256 8.51056C8.13503 8.74326 8.41547 8.85961 8.74389 8.85961ZM15.2554 8.85961C15.5838 8.85961 15.8644 8.74338 16.0971 8.51091C16.3298 8.27845 16.4461 7.998 16.4461 7.66956C16.4461 7.34115 16.3299 7.06059 16.0974 6.82789C15.8649 6.59521 15.5845 6.47886 15.2561 6.47886C14.9277 6.47886 14.6471 6.5951 14.4144 6.82756C14.1817 7.06003 14.0654 7.34047 14.0654 7.66889C14.0654 7.99732 14.1816 8.27788 14.4141 8.51056C14.6465 8.74326 14.927 8.85961 15.2554 8.85961Z" fill="#09090B"/>
</g>
</g>
</svg>
