<svg width="24" height="24" viewBox="0 0 24 24" fill="none" xmlns="http://www.w3.org/2000/svg">
<g id="Search">
<mask id="mask0_8_530" style="mask-type:alpha" maskUnits="userSpaceOnUse" x="0" y="0" width="24" height="24">
<rect id="Bounding box" width="24" height="24" fill="#D9D9D9"/>
</mask>
<g mask="url(#mask0_8_530)">
<path id="search" d="M19.7673 21.2269L13.4365 14.8961C12.9365 15.2923 12.324 15.6028 11.599 15.8279C10.874 16.0529 10.1558 16.1654 9.44423 16.1654C7.5684 16.1654 5.98022 15.5152 4.67968 14.215C3.37915 12.9148 2.72888 11.327 2.72888 9.45157C2.72888 7.57617 3.379 5.98783 4.67923 4.68655C5.97947 3.38528 7.56728 2.73465 9.44268 2.73465C11.3181 2.73465 12.9064 3.38492 14.2077 4.68545C15.509 5.98598 16.1596 7.57417 16.1596 9.45C16.1596 10.1808 16.0522 10.8878 15.8375 11.5712C15.6227 12.2545 15.3154 12.8532 14.9154 13.3673L21.2711 19.7231L19.7673 21.2269ZM9.44423 14.0154C10.7327 14.0154 11.8157 13.5766 12.6933 12.699C13.5708 11.8215 14.0096 10.7385 14.0096 9.45C14.0096 8.16153 13.5708 7.07852 12.6933 6.20095C11.8157 5.32338 10.7327 4.8846 9.44423 4.8846C8.15577 4.8846 7.07275 5.32338 6.19518 6.20095C5.31763 7.07852 4.87886 8.16153 4.87886 9.45C4.87886 10.7385 5.31763 11.8215 6.19518 12.699C7.07275 13.5766 8.15577 14.0154 9.44423 14.0154Z" fill="#09090B"/>
</g>
</g>
</svg>
