<svg width="24" height="24" viewBox="0 0 24 24" fill="none" xmlns="http://www.w3.org/2000/svg">
<g id="Visualization">
<mask id="mask0_97_435" style="mask-type:alpha" maskUnits="userSpaceOnUse" x="0" y="0" width="24" height="24">
<rect id="Bounding box" width="24" height="24" fill="#D9D9D9"/>
</mask>
<g mask="url(#mask0_97_435)">
<path id="tenancy" d="M3.93268 21.075C3.07318 21.075 2.34261 20.7742 1.74096 20.1725C1.13929 19.5709 0.838455 18.8403 0.838455 17.9808C0.838455 17.1213 1.13929 16.3907 1.74096 15.789C2.34261 15.1874 3.07318 14.8866 3.93268 14.8866C4.07071 14.8866 4.20491 14.8923 4.33526 14.9039C4.46561 14.9154 4.59915 14.9475 4.73588 15L8.73078 9.49231C8.46411 9.14487 8.25995 8.76334 8.11828 8.34771C7.97661 7.93207 7.90578 7.49246 7.90578 7.02886C7.90578 5.88656 8.30258 4.91861 9.09618 4.12503C9.88976 3.33143 10.8577 2.93463 12 2.93463C13.1423 2.93463 14.1102 3.33143 14.9038 4.12503C15.6974 4.91861 16.0942 5.88656 16.0942 7.02886C16.0942 7.49246 16.0234 7.93207 15.8817 8.34771C15.7401 8.76334 15.5359 9.14487 15.2692 9.49231L19.2556 15.0096C19.3916 14.9571 19.5258 14.9234 19.6583 14.9087C19.7907 14.8939 19.9271 14.8866 20.0673 14.8866C20.9268 14.8866 21.6574 15.1874 22.2591 15.789C22.8607 16.3907 23.1615 17.1213 23.1615 17.9808C23.1615 18.8403 22.8607 19.5709 22.2591 20.1725C21.6574 20.7742 20.9268 21.075 20.0673 21.075C19.2078 21.075 18.4772 20.7742 17.8756 20.1725C17.2739 19.5709 16.9731 18.8403 16.9731 17.9808C16.9731 17.6513 17.0202 17.3474 17.1145 17.0692C17.2087 16.791 17.3436 16.5269 17.5193 16.2769L13.5327 10.7634C13.4706 10.8203 13.4007 10.8661 13.3231 10.901C13.2454 10.9358 13.1627 10.9572 13.075 10.9651V15.0943C13.6583 15.2994 14.1407 15.6599 14.5221 16.176C14.9035 16.692 15.0942 17.2904 15.0942 17.9712C15.0942 18.8307 14.7934 19.5612 14.1917 20.1629C13.5901 20.7645 12.8595 21.0654 12 21.0654C11.1405 21.0654 10.4099 20.7645 9.80828 20.1629C9.20661 19.5612 8.90578 18.8307 8.90578 17.9712C8.90578 17.3014 9.09649 16.7083 9.47791 16.1919C9.85932 15.6755 10.3417 15.3096 10.925 15.0943V10.9651C10.8373 10.9572 10.7546 10.9358 10.6769 10.901C10.5993 10.8661 10.5294 10.8203 10.4673 10.7634L6.47113 16.2519C6.64678 16.5019 6.78332 16.7717 6.88076 17.0611C6.97819 17.3506 7.02691 17.6571 7.02691 17.9808C7.02691 18.8403 6.72608 19.5709 6.12443 20.1725C5.52278 20.7742 4.7922 21.075 3.93268 21.075ZM3.93268 18.925C4.19446 18.925 4.41729 18.8331 4.60116 18.6492C4.78502 18.4654 4.87696 18.2425 4.87696 17.9808C4.87696 17.719 4.78502 17.4962 4.60116 17.3123C4.41729 17.1285 4.19446 17.0365 3.93268 17.0365C3.67091 17.0365 3.4481 17.1285 3.26423 17.3123C3.08036 17.4962 2.98843 17.719 2.98843 17.9808C2.98843 18.2425 3.08036 18.4654 3.26423 18.6492C3.4481 18.8331 3.67091 18.925 3.93268 18.925ZM12 18.9154C12.2618 18.9154 12.4846 18.8235 12.6685 18.6396C12.8523 18.4557 12.9443 18.2329 12.9443 17.9712C12.9443 17.7094 12.8523 17.4866 12.6685 17.3027C12.4846 17.1188 12.2618 17.0269 12 17.0269C11.7382 17.0269 11.5154 17.1188 11.3316 17.3027C11.1477 17.4866 11.0558 17.7094 11.0558 17.9712C11.0558 18.2329 11.1477 18.4557 11.3316 18.6396C11.5154 18.8235 11.7382 18.9154 12 18.9154ZM20.0673 18.925C20.3291 18.925 20.5519 18.8331 20.7358 18.6492C20.9196 18.4654 21.0116 18.2425 21.0116 17.9808C21.0116 17.719 20.9196 17.4962 20.7358 17.3123C20.5519 17.1285 20.3291 17.0365 20.0673 17.0365C19.8055 17.0365 19.5827 17.1285 19.3989 17.3123C19.215 17.4962 19.1231 17.719 19.1231 17.9808C19.1231 18.2425 19.215 18.4654 19.3989 18.6492C19.5827 18.8331 19.8055 18.925 20.0673 18.925ZM12 8.97311C12.5347 8.97311 12.9924 8.78273 13.3731 8.40198C13.7539 8.02123 13.9443 7.56352 13.9443 7.02886C13.9443 6.49419 13.7539 6.03648 13.3731 5.65573C12.9924 5.27498 12.5347 5.08461 12 5.08461C11.4653 5.08461 11.0076 5.27498 10.6269 5.65573C10.2461 6.03648 10.0558 6.49419 10.0558 7.02886C10.0558 7.56352 10.2461 8.02123 10.6269 8.40198C11.0076 8.78273 11.4653 8.97311 12 8.97311Z" fill="#09090B"/>
</g>
</g>
</svg>
