<svg width="26" height="17" viewBox="0 0 26 17" fill="none" xmlns="http://www.w3.org/2000/svg">
<path fill-rule="evenodd" clip-rule="evenodd" d="M3.648 12.7953C3.648 12.3433 3.80563 11.9055 4.09375 11.5572V11.5572C4.94468 10.5286 6.55566 10.6452 7.24965 11.7855L10.166 16.5778C10.2318 16.686 10.3493 16.752 10.4759 16.752H11.2403C11.2409 16.752 11.2412 16.7526 11.2408 16.753V16.753C11.2405 16.7534 11.2408 16.754 11.2413 16.754H14.6011C15.0857 16.754 15.5439 16.5332 15.846 16.1542L19.136 12.026L21.4834 8.82507C21.5014 8.80052 21.53 8.78601 21.5604 8.78601V8.78601C21.6132 8.78601 21.656 8.8288 21.656 8.88158V14.93C21.656 15.9374 22.4726 16.754 23.48 16.754V16.754C24.4874 16.754 25.304 15.9374 25.304 14.93V1.82602C25.304 0.818647 24.4874 0.00201416 23.48 0.00201416V0.00201416C22.4726 0.00201416 21.656 0.818647 21.656 1.82602V3.95872C21.656 4.41071 21.4984 4.84856 21.2103 5.19683V5.19683C20.3593 6.22543 18.7483 6.10886 18.0544 4.96848L15.138 0.176184C15.0722 0.0680273 14.9547 0.00201416 14.8281 0.00201416H14.0637C14.0631 0.00201416 14.0628 0.0014096 14.0632 0.00100708V0.00100708C14.0635 0.000604557 14.0632 0 14.0627 0H10.703C10.2183 0 9.76004 0.220795 9.45796 0.599841L6.168 4.728L3.82064 7.92895C3.80264 7.9535 3.77401 7.968 3.74357 7.968V7.968C3.69079 7.968 3.648 7.92521 3.648 7.87243V1.824C3.648 0.816633 2.83137 0 1.824 0V0C0.816632 0 0 0.816631 0 1.824V14.928C0 15.9354 0.816632 16.752 1.824 16.752V16.752C2.83137 16.752 3.648 15.9354 3.648 14.928V12.7953ZM13.6493 4.67923C12.925 3.51631 11.2722 3.40953 10.4043 4.46957L9.33161 5.77956C8.78896 6.44228 8.72857 7.37698 9.18142 8.10402L11.6547 12.0748C12.379 13.2377 14.0318 13.3445 14.8998 12.2844L15.9724 10.9745C16.515 10.3117 16.5754 9.37704 16.1226 8.64999L13.6493 4.67923Z" fill="#6464F0"/>
</svg>
